ply
format ascii 1.0
element vertex 20
property float x
property float y
property float z
element face 18
property list uchar int vertex_indices
end_header
0 0 0
0 0 0.1
0.1 0 0.1
0.1 0 0
0 0.8 0
0 0.8 0.1
0.1 0.8 0.1
0.1 0.8 0
0.9 0 0
0.9 0 0.1
1 0 0.1
1 0 0
0.9 0.8 0
0.9 0.8 0.1
1 0.8 0.1
1 0.8 0
0 0 0.9
0 0 1
0.1 0 1
0.1 0 0.9
4 0 1 2 3
4 4 5 6 7
4 0 4 5 1
4 1 5 6 2
4 2 6 7 3
4 3 7 4 0
4 8 9 10 11
4 12 13 14 15
4 8 12 13 9
4 9 13 14 10
4 10 14 15 11
4 11 15 12 8
4 16 17 18 19
4 20 21 22 23
4 16 20 21 17
4 17 21 22 18
4 18 22 23 19
4 19 23 20 16